<svg width="50" height="50" viewBox="0 0 50 50" fill="none" xmlns="http://www.w3.org/2000/svg">
<path d="M26.0001 5C20.6957 5 15.6087 7.10714 11.858 10.858C8.10714 14.6086 6 19.6959 6 25.0001C6 30.3044 8.10714 35.3916 11.858 39.1423C15.6086 42.8931 20.6959 45.0003 26.0001 45.0003C31.3044 45.0003 36.3916 42.8931 40.1423 39.1423C43.8931 35.3917 46.0003 30.3044 46.0003 25.0001C46.0008 21.4893 45.077 18.0401 43.3217 14.9994C41.5664 11.9587 39.0416 9.43386 36.001 7.67871C32.9606 5.92343 29.5112 4.99943 26.0001 5ZM17.0509 15.6293C17.0316 15.2177 17.3466 14.8673 17.7579 14.8427H25.7657C25.9605 14.8461 26.1449 14.9326 26.2719 15.0804L27.9067 16.9387L28.1583 17.2216H17.0512L17.0509 15.6293ZM36.1401 31.5057C36.1401 31.6932 36.0656 31.8729 35.9331 32.0057C35.8003 32.1383 35.6206 32.2127 35.4328 32.2127H16.5643C16.1739 32.2127 15.8572 31.8961 15.8572 31.5057V18.4943C15.8572 18.1039 16.1739 17.7873 16.5643 17.7873H35.4328C35.6206 17.7873 35.8003 17.8618 35.9331 17.9943C36.0657 18.1271 36.1401 18.3068 36.1401 18.4943V31.5057Z" fill="white"/>
</svg>
